<mxfile host="app.diagrams.net" modified="2024-03-10T20:54:05.798Z" agent="Mozilla/5.0 (Macintosh; Intel Mac OS X 10_15_7) AppleWebKit/537.36 (KHTML, like Gecko) Chrome/122.0.0.0 Safari/537.36" etag="FjT1x0zaiy0vUfT4sQRB" version="24.0.4" type="device">
  <diagram name="Page-1" id="16e2658f-23c8-b752-8be9-c03fbebb8bbe">
    <mxGraphModel dx="966" dy="601" grid="1" gridSize="10" guides="1" tooltips="1" connect="1" arrows="1" fold="1" page="1" pageScale="1" pageWidth="1100" pageHeight="850" background="none" math="0" shadow="0">
      <root>
        <mxCell id="0" />
        <mxCell id="1" parent="0" />
        <mxCell id="mUH_bVmxiJ3iHr5CY6jS-7" value="" style="group;fontSize=20;" vertex="1" connectable="0" parent="1">
          <mxGeometry x="40" y="100" width="250" height="130" as="geometry" />
        </mxCell>
        <mxCell id="mUH_bVmxiJ3iHr5CY6jS-6" value="" style="rounded=0;whiteSpace=wrap;html=1;fontSize=20;" vertex="1" parent="mUH_bVmxiJ3iHr5CY6jS-7">
          <mxGeometry width="250" height="130" as="geometry" />
        </mxCell>
        <mxCell id="mUH_bVmxiJ3iHr5CY6jS-1" value="" style="pointerEvents=1;verticalLabelPosition=bottom;shadow=0;dashed=0;align=center;html=1;verticalAlign=top;shape=mxgraph.electrical.miscellaneous.batteryStack;fontSize=20;" vertex="1" parent="mUH_bVmxiJ3iHr5CY6jS-7">
          <mxGeometry x="10.869565217391305" y="40" width="108.69565217391303" height="60" as="geometry" />
        </mxCell>
        <mxCell id="mUH_bVmxiJ3iHr5CY6jS-2" value="" style="html=1;shape=mxgraph.electrical.electro-mechanical.singleSwitch;aspect=fixed;elSwitchState=off;fontSize=20;" vertex="1" parent="mUH_bVmxiJ3iHr5CY6jS-7">
          <mxGeometry x="163.04347826086956" y="40" width="75" height="20" as="geometry" />
        </mxCell>
        <mxCell id="mUH_bVmxiJ3iHr5CY6jS-3" style="edgeStyle=orthogonalEdgeStyle;rounded=0;orthogonalLoop=1;jettySize=auto;html=1;exitX=1;exitY=0.5;exitDx=0;exitDy=0;entryX=0;entryY=0.8;entryDx=0;entryDy=0;endArrow=none;endFill=0;fontSize=20;" edge="1" parent="mUH_bVmxiJ3iHr5CY6jS-7" source="mUH_bVmxiJ3iHr5CY6jS-1" target="mUH_bVmxiJ3iHr5CY6jS-2">
          <mxGeometry relative="1" as="geometry">
            <Array as="points">
              <mxPoint x="141.30434782608694" y="70" />
              <mxPoint x="141.30434782608694" y="56" />
            </Array>
          </mxGeometry>
        </mxCell>
        <mxCell id="mUH_bVmxiJ3iHr5CY6jS-8" value="Battery Box with Switch" style="text;html=1;align=center;verticalAlign=middle;resizable=0;points=[];autosize=1;strokeColor=none;fillColor=none;fontSize=20;" vertex="1" parent="mUH_bVmxiJ3iHr5CY6jS-7">
          <mxGeometry y="5" width="230" height="40" as="geometry" />
        </mxCell>
        <mxCell id="mUH_bVmxiJ3iHr5CY6jS-13" style="edgeStyle=orthogonalEdgeStyle;rounded=0;orthogonalLoop=1;jettySize=auto;html=1;exitX=1;exitY=0.5;exitDx=0;exitDy=0;entryX=0;entryY=0.5;entryDx=0;entryDy=0;fontSize=20;" edge="1" parent="1" source="mUH_bVmxiJ3iHr5CY6jS-6" target="mUH_bVmxiJ3iHr5CY6jS-10">
          <mxGeometry relative="1" as="geometry">
            <mxPoint x="497" y="302.99" as="targetPoint" />
          </mxGeometry>
        </mxCell>
        <mxCell id="mUH_bVmxiJ3iHr5CY6jS-14" value="Raspberry Pi Zero W" style="rounded=1;whiteSpace=wrap;html=1;fontSize=20;" vertex="1" parent="1">
          <mxGeometry x="410" y="320" width="220" height="60" as="geometry" />
        </mxCell>
        <mxCell id="mUH_bVmxiJ3iHr5CY6jS-16" style="edgeStyle=orthogonalEdgeStyle;rounded=0;orthogonalLoop=1;jettySize=auto;html=1;exitX=0.284;exitY=0.986;exitDx=0;exitDy=0;entryX=0.5;entryY=0;entryDx=0;entryDy=0;startArrow=classic;startFill=1;fontSize=20;exitPerimeter=0;" edge="1" parent="1" source="mUH_bVmxiJ3iHr5CY6jS-10" target="mUH_bVmxiJ3iHr5CY6jS-14">
          <mxGeometry relative="1" as="geometry" />
        </mxCell>
        <mxCell id="mUH_bVmxiJ3iHr5CY6jS-29" value="Jumper Wire" style="edgeLabel;html=1;align=center;verticalAlign=middle;resizable=0;points=[];fontSize=20;" vertex="1" connectable="0" parent="mUH_bVmxiJ3iHr5CY6jS-16">
          <mxGeometry x="-0.1375" y="1" relative="1" as="geometry">
            <mxPoint as="offset" />
          </mxGeometry>
        </mxCell>
        <mxCell id="mUH_bVmxiJ3iHr5CY6jS-10" value="&lt;span style=&quot;text-wrap: nowrap; font-size: 20px;&quot;&gt;Power Supply Step-down Module&lt;/span&gt;" style="shape=hexagon;perimeter=hexagonPerimeter2;whiteSpace=wrap;html=1;fixedSize=1;fontSize=20;" vertex="1" parent="1">
          <mxGeometry x="430" y="125" width="320" height="70" as="geometry" />
        </mxCell>
        <mxCell id="mUH_bVmxiJ3iHr5CY6jS-15" value="DC" style="text;html=1;align=center;verticalAlign=middle;resizable=0;points=[];autosize=1;strokeColor=none;fillColor=none;fontSize=20;" vertex="1" parent="1">
          <mxGeometry x="390" y="125" width="50" height="40" as="geometry" />
        </mxCell>
        <mxCell id="mUH_bVmxiJ3iHr5CY6jS-18" value="Pin" style="text;html=1;align=center;verticalAlign=middle;resizable=0;points=[];autosize=1;strokeColor=none;fillColor=none;fontSize=20;" vertex="1" parent="1">
          <mxGeometry x="520" y="290" width="50" height="40" as="geometry" />
        </mxCell>
        <mxCell id="mUH_bVmxiJ3iHr5CY6jS-20" value="Micro SD" style="shape=card;whiteSpace=wrap;html=1;fontSize=20;" vertex="1" parent="1">
          <mxGeometry x="760" y="255" width="100" height="125" as="geometry" />
        </mxCell>
        <mxCell id="mUH_bVmxiJ3iHr5CY6jS-21" style="edgeStyle=orthogonalEdgeStyle;rounded=0;orthogonalLoop=1;jettySize=auto;html=1;exitX=1;exitY=0.5;exitDx=0;exitDy=0;entryX=0;entryY=0;entryDx=0;entryDy=65;entryPerimeter=0;endArrow=none;endFill=0;dashed=1;fontSize=20;" edge="1" parent="1" source="mUH_bVmxiJ3iHr5CY6jS-14" target="mUH_bVmxiJ3iHr5CY6jS-20">
          <mxGeometry relative="1" as="geometry" />
        </mxCell>
        <mxCell id="mUH_bVmxiJ3iHr5CY6jS-22" value="Slot" style="text;html=1;align=center;verticalAlign=middle;resizable=0;points=[];autosize=1;strokeColor=none;fillColor=none;fontSize=20;" vertex="1" parent="1">
          <mxGeometry x="620" y="340" width="60" height="40" as="geometry" />
        </mxCell>
        <mxCell id="mUH_bVmxiJ3iHr5CY6jS-24" style="edgeStyle=orthogonalEdgeStyle;rounded=0;orthogonalLoop=1;jettySize=auto;html=1;exitX=1;exitY=0.5;exitDx=0;exitDy=0;entryX=0.25;entryY=1;entryDx=0;entryDy=0;startArrow=classic;startFill=1;fontSize=20;" edge="1" parent="1" source="mUH_bVmxiJ3iHr5CY6jS-23" target="mUH_bVmxiJ3iHr5CY6jS-14">
          <mxGeometry relative="1" as="geometry" />
        </mxCell>
        <mxCell id="mUH_bVmxiJ3iHr5CY6jS-32" value="Jumper Wires" style="edgeLabel;html=1;align=center;verticalAlign=middle;resizable=0;points=[];fontSize=20;" vertex="1" connectable="0" parent="mUH_bVmxiJ3iHr5CY6jS-24">
          <mxGeometry x="-0.1139" relative="1" as="geometry">
            <mxPoint x="-15" as="offset" />
          </mxGeometry>
        </mxCell>
        <mxCell id="mUH_bVmxiJ3iHr5CY6jS-23" value="Altimeter" style="rhombus;whiteSpace=wrap;html=1;fontSize=20;" vertex="1" parent="1">
          <mxGeometry x="60" y="355" width="130" height="110" as="geometry" />
        </mxCell>
        <mxCell id="mUH_bVmxiJ3iHr5CY6jS-26" style="edgeStyle=orthogonalEdgeStyle;rounded=0;orthogonalLoop=1;jettySize=auto;html=1;exitX=0;exitY=0.25;exitDx=0;exitDy=0;entryX=0.65;entryY=1.017;entryDx=0;entryDy=0;startArrow=classic;startFill=1;fontSize=20;entryPerimeter=0;" edge="1" parent="1" source="mUH_bVmxiJ3iHr5CY6jS-25" target="mUH_bVmxiJ3iHr5CY6jS-14">
          <mxGeometry relative="1" as="geometry" />
        </mxCell>
        <mxCell id="mUH_bVmxiJ3iHr5CY6jS-31" value="Jumper Wires" style="edgeLabel;html=1;align=center;verticalAlign=middle;resizable=0;points=[];fontSize=20;" vertex="1" connectable="0" parent="mUH_bVmxiJ3iHr5CY6jS-26">
          <mxGeometry x="0.0111" y="-3" relative="1" as="geometry">
            <mxPoint x="31" y="1" as="offset" />
          </mxGeometry>
        </mxCell>
        <mxCell id="mUH_bVmxiJ3iHr5CY6jS-25" value="Geiger Counter" style="shape=trapezoid;perimeter=trapezoidPerimeter;whiteSpace=wrap;html=1;fixedSize=1;fontSize=20;" vertex="1" parent="1">
          <mxGeometry x="730" y="440" width="180" height="60" as="geometry" />
        </mxCell>
        <mxCell id="mUH_bVmxiJ3iHr5CY6jS-30" value="&lt;span style=&quot;background-color: initial;&quot;&gt;Pins&lt;/span&gt;" style="text;html=1;align=center;verticalAlign=middle;resizable=0;points=[];autosize=1;strokeColor=none;fillColor=none;fontSize=20;" vertex="1" parent="1">
          <mxGeometry x="550" y="380" width="60" height="40" as="geometry" />
        </mxCell>
        <mxCell id="mUH_bVmxiJ3iHr5CY6jS-33" value="&lt;span style=&quot;background-color: initial;&quot;&gt;Pins&lt;/span&gt;" style="text;html=1;align=center;verticalAlign=middle;resizable=0;points=[];autosize=1;strokeColor=none;fillColor=none;fontSize=20;" vertex="1" parent="1">
          <mxGeometry x="460" y="380" width="60" height="40" as="geometry" />
        </mxCell>
      </root>
    </mxGraphModel>
  </diagram>
</mxfile>
